<svg width="33" height="33" viewBox="0 0 33 33" fill="none" xmlns="http://www.w3.org/2000/svg">
<g opacity="0.05">
<path d="M0 7C0 3.13401 3.13401 0 7 0H26C29.866 0 33 3.13401 33 7V26C33 29.866 29.866 33 26 33H7C3.13401 33 0 29.866 0 26V7Z" fill="#495ECA"/>
</g>
<path d="M14.9975 17.255C15.3218 17.6885 15.7354 18.0472 16.2105 18.3067C16.6855 18.5662 17.2108 18.7206 17.7508 18.7593C18.2907 18.7979 18.8327 18.72 19.3399 18.5308C19.8471 18.3416 20.3076 18.0456 20.6903 17.6627L22.9554 15.3977C23.643 14.6857 24.0236 13.7321 24.015 12.7423C24.0064 11.7525 23.6093 10.8056 22.9094 10.1057C22.2095 9.40577 21.2626 9.00874 20.2728 9.00014C19.283 8.99154 18.3294 9.37205 17.6174 10.0597L16.3188 11.3508" stroke="#495ECA" stroke-linecap="round" stroke-linejoin="round"/>
<path d="M18.0176 15.745C17.6933 15.3115 17.2797 14.9528 16.8046 14.6933C16.3296 14.4337 15.8042 14.2794 15.2643 14.2407C14.7244 14.2021 14.1824 14.28 13.6752 14.4692C13.168 14.6584 12.7075 14.9544 12.3248 15.3373L10.0597 17.6023C9.37205 18.3143 8.99154 19.2679 9.00014 20.2577C9.00874 21.2475 9.40577 22.1944 10.1057 22.8943C10.8056 23.5942 11.7525 23.9913 12.7423 23.9999C13.7321 24.0085 14.6857 23.628 15.3977 22.9403L16.6888 21.6492" stroke="#495ECA" stroke-linecap="round" stroke-linejoin="round"/>
</svg>
