<svg width="33" height="33" viewBox="0 0 33 33" fill="none" xmlns="http://www.w3.org/2000/svg">
<g opacity="0.05">
<path d="M0 7C0 3.13401 3.13401 0 7 0H26C29.866 0 33 3.13401 33 7V26C33 29.866 29.866 33 26 33H7C3.13401 33 0 29.866 0 26V7Z" fill="#495ECA"/>
</g>
<path d="M8.66667 9.5H13.6667C14.5507 9.5 15.3986 9.85119 16.0237 10.4763C16.6488 11.1014 17 11.9493 17 12.8333V24.5C17 23.837 16.7366 23.2011 16.2678 22.7322C15.7989 22.2634 15.163 22 14.5 22H8.66667V9.5Z" stroke="#495ECA" stroke-linecap="round" stroke-linejoin="round"/>
<path d="M25.3333 9.5H20.3333C19.4493 9.5 18.6014 9.85119 17.9763 10.4763C17.3512 11.1014 17 11.9493 17 12.8333V24.5C17 23.837 17.2634 23.2011 17.7322 22.7322C18.2011 22.2634 18.837 22 19.5 22H25.3333V9.5Z" stroke="#495ECA" stroke-linecap="round" stroke-linejoin="round"/>
</svg>
