<svg width="18" height="18" viewBox="0 0 18 18" fill="none" xmlns="http://www.w3.org/2000/svg">
<path d="M13.5541 4.14253H4.14255V13.5541H13.5541V4.14253Z" fill="white"/>
<path d="M16.2054 6.70383C15.9141 6.40008 15.6129 6.08608 15.4992 5.81091C15.3946 5.55814 15.3882 5.13946 15.3821 4.73451C15.3707 3.98095 15.3578 3.12686 14.7641 2.53308C14.1703 1.93931 13.3162 1.92641 12.5626 1.91503C12.1577 1.90892 11.739 1.90258 11.4862 1.79799C11.2111 1.6842 10.8971 1.38301 10.5933 1.0917C10.0598 0.579975 9.45492 0 8.64857 0C7.84222 0 7.23743 0.579975 6.70383 1.0917C6.40008 1.38301 6.08608 1.6842 5.81091 1.79799C5.55814 1.90258 5.13946 1.90892 4.73451 1.91503C3.98095 1.92641 3.12686 1.93931 2.53308 2.53308C1.93931 3.12686 1.92641 3.98095 1.91503 4.73451C1.90892 5.13946 1.90258 5.55814 1.79799 5.81091C1.6842 6.086 1.38301 6.40008 1.0917 6.70383C0.579975 7.23736 0 7.84222 0 8.64857C0 9.45492 0.579975 10.0597 1.0917 10.5933C1.38301 10.8971 1.6842 11.2111 1.79799 11.4862C1.90258 11.739 1.90892 12.1577 1.91503 12.5626C1.92641 13.3162 1.93931 14.1703 2.53308 14.7641C3.12686 15.3578 3.98095 15.3707 4.73451 15.3821C5.13946 15.3882 5.55814 15.3946 5.81091 15.4992C6.086 15.6129 6.40008 15.9141 6.70383 16.2054C7.23736 16.7172 7.84222 17.2971 8.64857 17.2971C9.45492 17.2971 10.0597 16.7172 10.5933 16.2054C10.8971 15.9141 11.2111 15.6129 11.4862 15.4992C11.739 15.3946 12.1577 15.3882 12.5626 15.3821C13.3162 15.3707 14.1703 15.3578 14.7641 14.7641C15.3578 14.1703 15.3707 13.3162 15.3821 12.5626C15.3882 12.1577 15.3946 11.739 15.4992 11.4862C15.6129 11.2111 15.9141 10.8971 16.2054 10.5933C16.7172 10.0598 17.2971 9.45492 17.2971 8.64857C17.2971 7.84222 16.7172 7.23743 16.2054 6.70383ZM12.4727 7.24218L7.94251 11.5665C7.8276 11.6761 7.67485 11.7373 7.51599 11.7373C7.35714 11.7373 7.20439 11.6761 7.08948 11.5665L4.8244 9.40432C4.76568 9.34832 4.71857 9.2813 4.68576 9.20709C4.65295 9.13287 4.63508 9.05292 4.63318 8.9718C4.63127 8.89068 4.64536 8.80998 4.67465 8.73431C4.70394 8.65864 4.74785 8.58947 4.80388 8.53078C4.8599 8.47208 4.92694 8.42499 5.00117 8.39221C5.07539 8.35942 5.15535 8.34158 5.23647 8.33971C5.31759 8.33783 5.39829 8.35195 5.47395 8.38127C5.54961 8.41059 5.61876 8.45452 5.67743 8.51057L7.51599 10.2656L11.6197 6.34843C11.6784 6.29238 11.7475 6.24845 11.8232 6.21913C11.8989 6.18981 11.9795 6.17569 12.0607 6.17757C12.1418 6.17944 12.2217 6.19728 12.296 6.23006C12.3702 6.26285 12.4372 6.30994 12.4933 6.36863C12.5493 6.42733 12.5932 6.49649 12.6225 6.57217C12.6518 6.64784 12.6659 6.72854 12.664 6.80966C12.6621 6.89078 12.6442 6.97073 12.6114 7.04494C12.5786 7.11916 12.5315 7.18618 12.4727 7.24218Z" fill="#FFA45A"/>
</svg>
