<svg width="33" height="33" viewBox="0 0 33 33" fill="none" xmlns="http://www.w3.org/2000/svg">
<g opacity="0.05">
<path d="M0 7C0 3.13401 3.13401 0 7 0H26C29.866 0 33 3.13401 33 7V26C33 29.866 29.866 33 26 33H7C3.13401 33 0 29.866 0 26V7Z" fill="#495ECA"/>
</g>
<path d="M16.5 24C20.6421 24 24 20.6421 24 16.5C24 12.3579 20.6421 9 16.5 9C12.3579 9 9 12.3579 9 16.5C9 20.6421 12.3579 24 16.5 24Z" stroke="#495ECA" stroke-linecap="round" stroke-linejoin="round"/>
<path d="M15 13.5L19.5 16.5L15 19.5V13.5Z" stroke="#495ECA" stroke-linecap="round" stroke-linejoin="round"/>
</svg>
